<?xml version="1.0" encoding="UTF-8" standalone="no"?>
<!-- Created with Inkscape (http://www.inkscape.org/) -->

<svg
   version="1.1"
   id="svg1"
   width="817"
   height="268"
   viewBox="0 0 817 268"
   sodipodi:docname="ikineers logo.svg"
   inkscape:version="1.4.2 (f4327f4, 2025-05-13)"
   xmlns:inkscape="http://www.inkscape.org/namespaces/inkscape"
   xmlns:sodipodi="http://sodipodi.sourceforge.net/DTD/sodipodi-0.dtd"
   xmlns="http://www.w3.org/2000/svg"
   xmlns:svg="http://www.w3.org/2000/svg">
  <defs
     id="defs1" />
  <sodipodi:namedview
     id="namedview1"
     pagecolor="#ffffff"
     bordercolor="#000000"
     borderopacity="0.25"
     inkscape:showpageshadow="2"
     inkscape:pageopacity="0.0"
     inkscape:pagecheckerboard="0"
     inkscape:deskcolor="#d1d1d1"
     inkscape:export-bgcolor="#ffffff00"
     inkscape:zoom="1.0869033"
     inkscape:cx="397.91948"
     inkscape:cy="-14.260698"
     inkscape:window-width="1920"
     inkscape:window-height="1009"
     inkscape:window-x="-8"
     inkscape:window-y="481"
     inkscape:window-maximized="1"
     inkscape:current-layer="g1">
    <inkscape:page
       x="0"
       y="0"
       width="817"
       height="268"
       id="page2"
       margin="0"
       bleed="0" />
  </sodipodi:namedview>
  <g
     inkscape:groupmode="layer"
     inkscape:label="Image"
     id="g1">
    <path
       style="fill:#000000"
       d="m 62.513386,253.63345 c -1.653996,-1.20943 -1.959666,-3.49399 -2.658528,-19.86962 -0.43431,-10.17668 -1.253949,-23.39923 -1.82142,-29.38345 -0.567472,-5.98421 -1.032143,-13.92902 -1.032602,-17.65513 -7.84e-4,-6.35246 0.159054,-6.83554 2.564264,-7.75 4.082873,-1.55231 20.030949,-1.23634 21.697155,0.42986 2.190212,2.19021 5.984908,32.25988 7.333131,58.10868 0.570973,10.94699 0.439668,13.21223 -0.826775,14.26328 -0.828052,0.68722 -5.952238,1.68191 -11.38708,2.21041 -12.561748,1.22155 -11.68271,1.244 -13.868145,-0.35403 z m 106.784664,-2.31731 c -1.21107,-0.24346 -3.53809,-1.96444 -5.17117,-3.82441 -3.65667,-4.16472 -3.70304,-4.57072 -5.08199,-44.49173 -2.4414,-70.6791 -2.50116,-78.217 -0.64846,-81.79971 3.11269,-6.01928 6.47363,-7.19233 20.61917,-7.19655 20.29389,-0.006 22.86926,2.43746 23.73662,22.5214 0.29632,6.86118 0.81504,12.47486 1.15272,12.47486 0.33768,0 1.15298,-0.8631 1.81178,-1.918 0.65879,-1.0549 6.82575,-9.09356 13.70434,-17.86368 8.29256,-10.57292 13.52539,-16.36771 15.53036,-17.1982 4.42072,-1.83112 28.52383,-0.95634 32.55094,1.18137 6.41615,3.4059 9.36343,9.9184 6.97703,15.41692 -0.68785,1.58487 -8.05081,10.87525 -16.36212,20.64529 l -15.11148,17.7637 20.7471,31.22004 20.74711,31.22004 0.31792,-6.48374 c 0.17485,-3.56606 -0.16265,-17.06256 -0.75,-29.99223 -1.50138,-33.05031 -1.41119,-41.0564 0.49308,-43.77514 3.00704,-4.29314 8.94485,-6.21637 19.19257,-6.21637 5.15785,0 10.36083,0.50498 11.56217,1.12219 4.0228,2.06675 7.70765,6.25051 8.65795,9.83018 1.2501,4.70899 4.1035,52.07426 4.33923,72.02944 0.18258,15.45587 0.12939,15.8987 -2.20997,18.3986 -3.23867,3.46093 -6.65701,4.34838 -19.70612,5.11599 -13.47645,0.79275 -17.2459,-0.34615 -20.19933,-6.10296 -1.87339,-3.65162 -1.96416,-3.69795 -3.09716,-1.58092 -0.64197,1.19952 -3.06467,3.18193 -5.38378,4.40536 -3.81178,2.01088 -5.66995,2.22719 -19.3562,2.25327 -13.04383,0.0249 -15.40828,-0.21359 -17.08023,-1.7225 -1.06732,-0.96323 -7.72395,-11.42573 -14.79251,-23.25 -7.06856,-11.82426 -13.10746,-21.47542 -13.41978,-21.44704 -0.31231,0.0284 -2.03034,1.87705 -3.81784,4.10814 l -3.25,4.05653 v 14.94152 c 0,23.21193 -1.61128,24.83212 -26,26.14383 -4.675,0.25143 -9.49088,0.25796 -10.70195,0.0145 z m 19.95092,-7.87435 C 198.81664,242.59013 199,242.21274 199,223.37266 v -15.18233 l 7.25,-8.98895 c 4.76761,-5.91115 7.62372,-8.68604 8.34148,-8.10428 0.60032,0.48657 7.80032,12.16753 16,25.95768 l 14.90852,25.07301 13,-0.36777 c 16.33124,-0.46201 22.02067,-2.91767 19.71393,-8.50891 -0.39734,-0.96311 -10.06088,-15.78423 -21.47452,-32.93583 -11.41364,-17.1516 -20.98767,-31.79865 -21.2756,-32.549 -0.30239,-0.788 6.45881,-9.87818 16.00633,-21.51993 C 260.74959,134.93147 268,125.20366 268,124.0684 c 0,-4.10512 -4.39946,-5.54076 -18.13237,-5.91698 l -12.72395,-0.34857 -10.15042,12.84857 c -5.58273,7.06672 -14.50256,18.31945 -19.82184,25.00606 L 197.5,167.81496 196.82412,163.65748 C 196.45239,161.37087 196.07692,154.1 195.98974,147.5 195.77156,130.98253 194.80863,124.06445 192.49191,122.37043 191.15573,121.39339 187.23456,121 178.83192,121 c -16.11683,0 -15.30336,-1.51223 -14.40293,26.77483 0.38035,11.94884 1.32783,37.87692 2.1055,57.61794 1.64139,41.66653 1.198,39.99659 10.39687,39.15764 3.06275,-0.27932 8.60568,-0.7782 12.31761,-1.10862 z m 131.13297,-3.44437 c 1.80587,-1.74342 1.83471,-2.80058 0.71345,-26.15713 -2.17144,-45.23282 -3.46296,-59.06501 -5.7263,-61.32834 -2.19312,-2.19312 -22.5648,-2.18599 -24.3861,0.009 -0.96339,1.16082 -1.11114,5.47792 -0.62458,18.25 0.35052,9.20123 0.9202,28.65451 1.26595,43.22951 0.39113,16.48782 1.03574,27.00939 1.70612,27.84825 1.72133,2.15389 24.51893,0.59411 27.05146,-1.85083 z m 17.51594,6.71795 c -3.951,-2.65652 -5.77027,-7.10026 -5.8198,-14.21537 -0.0191,-2.75 -1.01018,-21.96083 -2.20231,-42.69073 -2.34419,-40.76292 -2.26884,-42.01125 2.7336,-45.28898 2.54738,-1.6691 13.5949,-3.43779 21.79547,-3.48941 4.43443,-0.0279 5.26763,0.3505 8.6877,3.94573 l 3.78286,3.97662 6.34928,-2.97119 c 21.3936,-10.01127 44.11198,-4.06503 53.23219,13.93284 1.42876,2.81952 3.38417,8.4592 4.34535,12.53261 l 1.7476,7.40621 3.85827,-7.495 c 16.38844,-31.83585 59.94922,-40.60689 83.23224,-16.75897 4.52962,4.63952 9.19091,12.50917 11.78487,19.89638 0.5861,1.66913 1.22296,1.0173 3.88786,-3.97917 7.06956,-13.25491 20.92622,-24.26048 35.23924,-27.98855 7.21319,-1.87879 21.22969,-1.96357 27.9477,-0.16904 12.43827,3.32256 23.2142,12.54623 29.04104,24.85772 l 3.4469,7.28293 -0.24397,-13.16124 c -0.22263,-12.01017 -0.0606,-13.40952 1.85243,-16 3.2956,-4.46261 5.9912,-5.30928 16.9036,-5.30928 11.11374,0 13.86218,0.90033 17.01063,5.5723 l 2.07065,3.07265 4.76331,-3.21729 c 6.39449,-4.31905 14.83291,-6.947 22.32485,-6.95256 5.12912,-0.004 6.59759,0.39766 8.70858,2.38083 2.48386,2.33347 4.33447,8.38689 4.88056,15.96452 l 0.24142,3.34994 3.14424,-4.47913 c 5.98731,-8.52922 16.09021,-13.76751 30.30718,-15.71409 16.91459,-2.31593 33.83718,1.60077 43.47395,10.06196 4.88287,4.28723 9.57463,14.04684 9.57463,19.9168 0,5.74351 -2.62941,8.61707 -9.48529,10.36602 l -4.69191,1.19692 4.93165,3.1956 c 8.86406,5.74372 13.12964,14.13439 13.20166,25.96854 0.13253,21.77768 -15.41068,34.80738 -42.98254,36.03177 -14.29524,0.63482 -23.67187,-0.85076 -32.67225,-5.17641 -11.21442,-5.38973 -19.23937,-16.02081 -19.62554,-25.99902 -0.29768,-7.69165 2.93813,-11.00591 11.95157,-12.24134 C 719.03231,203.99785 721,203.49499 721,203.21 c 0,-0.28498 -1.80317,-2.06159 -4.00705,-3.94803 -4.80874,-4.1161 -8.44061,-10.07576 -10.03391,-16.46499 -1.1156,-4.47359 -1.27736,-4.63762 -3.31593,-3.36239 -1.17871,0.73735 -5.06811,1.64193 -8.64311,2.01017 -7.54576,0.77726 -13.44036,3.31788 -17.47944,7.53378 l -2.8585,2.98363 1.03301,21.76891 c 1.489,31.37799 1.14778,31.99523 -18.56255,33.57837 -10.81495,0.86866 -12.2761,0.78289 -15.7757,-0.92606 -5.35096,-2.61302 -7.3389,-7.00661 -7.4129,-16.38339 -0.0536,-6.78644 -1.55204,-18.01956 -1.82892,-13.71016 -0.40466,6.29804 -12.73013,20.65476 -21.83374,25.43194 -10.53458,5.52811 -15.70324,6.76435 -28.28126,6.76435 -12.18874,0 -17.31061,-1.16304 -27.41637,-6.22556 -6.11694,-3.0643 -14.19919,-11.08099 -18.20446,-18.05678 l -3.04091,-5.29622 -4.2006,6.49531 c -7.01679,10.84992 -18.02861,18.72473 -30.782,22.01293 -8.14304,2.09951 -24.30572,2.08499 -31.42416,-0.0282 -13.91248,-4.13016 -25.06606,-12.90955 -31.04805,-24.43905 l -3.34576,-6.44851 -0.64701,12.23959 c -0.73238,13.85441 -1.80132,16.48947 -7.68664,18.94852 -2.89736,1.21059 -5.77121,1.37581 -14.08004,0.80948 -13.06067,-0.89021 -17.04958,-2.21433 -19.54903,-6.48927 -1.85467,-3.17214 -1.878,-4.14107 -0.63825,-26.5092 1.54304,-27.84007 0.83538,-34.48451 -3.83045,-35.96539 -2.66017,-0.84431 -9.76006,2.21067 -12.12499,5.2172 -2.4739,3.14506 -2.57181,9.94104 -0.48417,33.60649 2.24904,25.49498 1.21456,27.47205 -15.49711,29.61783 -12.15074,1.56015 -16.29416,1.30047 -20.10212,-1.25988 z m 25.29461,-6.73727 c 2.1319,-0.60066 3.94691,-1.84196 4.29448,-2.93703 0.33109,-1.04318 0.12465,-6.54167 -0.45874,-12.21888 -0.5834,-5.6772 -1.3145,-16.84719 -1.62466,-24.82219 -0.51841,-13.3293 -0.40286,-14.75305 1.43111,-17.63417 4.70449,-7.39065 14.6836,-11.72555 21.96833,-9.543 8.40105,2.51702 9.61102,8.76935 8.04774,41.58522 -1.05194,22.08173 -1.00985,24.00244 0.5509,25.14369 0.92941,0.67961 6.66361,1.56056 12.74265,1.95769 14.88972,0.97269 14.19595,1.8502 14.85215,-18.78541 0.74837,-23.53385 -0.36029,-48.08433 -2.44963,-54.2452 -2.70792,-7.98489 -7.57669,-13.85708 -14.15962,-17.07781 -11.92763,-5.83565 -29.90461,-2.85936 -40.83322,6.76039 -2.48562,2.18793 -4.92519,3.72721 -5.42126,3.42063 -0.49607,-0.30659 -1.20353,-2.56858 -1.57214,-5.02664 -0.36861,-2.45806 -1.48684,-5.47771 -2.48497,-6.71034 -1.7797,-2.19784 -2.00362,-2.21904 -11.59118,-1.0971 -5.37704,0.62923 -10.21167,1.57929 -10.74364,2.11126 -0.62296,0.62296 -0.57811,7.49382 0.12601,19.304 0.60127,10.08524 1.60391,29.36179 2.22808,42.83679 1.42271,30.71436 0.89067,29.52076 12.7709,28.65075 4.74882,-0.34777 10.29584,-1.10046 12.32671,-1.67265 z m 138.13174,-0.90294 c 8.43305,-3.29316 17.53846,-10.5446 21.45447,-17.08607 4.76465,-7.95907 4.32255,-8.88899 -5.7787,-12.15512 -8.75396,-2.8305 -13,-3.47549 -13,-1.97476 0,0.47257 -1.80906,2.91441 -4.02013,5.42632 -11.20265,12.72688 -31.46566,8.72906 -34.14227,-6.73615 -0.39405,-2.27678 -1.92531,-1.93628 31.6624,-7.04064 12.65,-1.92243 24.52158,-3.75482 26.3813,-4.07198 l 3.38129,-0.57665 -0.55127,-6.18005 C 525.00746,169.57892 513.31011,154.50482 497,150.39176 c -10.55091,-2.66071 -28.63899,-0.17619 -36.9376,5.07363 -7.69889,4.87043 -16.79809,16.84466 -19.9818,26.29535 -7.40777,21.98964 0.76369,45.49269 19.06363,54.83154 9.29693,4.74441 12.50674,5.3987 24.85577,5.06657 9.06635,-0.24384 12.73254,-0.79061 17.32423,-2.58369 z m -36.91856,-53.21144 c 1.63572,-10.2312 9.42722,-17.28389 19.09433,-17.28378 6.28906,8e-5 11.0495,2.67185 13.59517,7.63022 2.96821,5.78138 2.56358,7.59714 -1.84517,8.28027 -2.0625,0.31959 -7.35,1.20467 -11.75,1.96685 -4.4,0.76218 -9.8,1.67009 -12,2.01757 -2.2,0.34748 -4.8532,0.88397 -5.89599,1.19219 -1.72597,0.51015 -1.83343,0.16908 -1.19834,-3.80332 z m 23.95109,-7.60251 c 1.35783,-0.81018 -1.584,-2.22909 -4.65642,-2.2459 -2.7271,-0.0149 -8.70034,2.46255 -8.70034,3.60856 0,0.65001 12.04271,-0.57859 13.35676,-1.36266 z m 103.75242,62.71808 c 12.31131,-2.33479 25.80888,-11.69368 31.0131,-21.50372 3.25193,-6.12995 2.25208,-7.29723 -9.1606,-10.69461 l -9.36343,-2.78734 -4.4969,5.14063 c -5.4184,6.19404 -10.74099,8.81421 -17.9652,8.84379 -7.52017,0.0308 -12.42173,-2.90339 -15.64058,-9.36277 -1.3739,-2.75706 -2.15995,-5.33745 -1.74679,-5.73419 0.93586,-0.89866 18.19026,-3.94435 41.65542,-7.35289 9.8473,-1.43041 18.2848,-2.83598 18.75,-3.12349 1.32178,-0.81691 0.99591,-7.40818 -0.68539,-13.86315 -3.44966,-13.24414 -11.36251,-23.3008 -22.29366,-28.33365 -7.52245,-3.46343 -21.06925,-4.25273 -29.73796,-1.73266 -12.31492,3.58004 -22.13865,10.65078 -28.30543,20.37315 -9.14045,14.41058 -9.50437,36.52713 -0.83942,51.01475 9.11891,15.24663 28.729,22.92573 48.81684,19.11615 z M 563,188.15893 c 0,-2.4193 3.04797,-10.41756 5.03141,-13.20303 4.49669,-6.31503 15.08597,-8.77245 21.98419,-5.1018 3.82798,2.03693 8.13826,8.51198 7.73853,11.62511 -0.22327,1.73884 -2.13654,2.30979 -15.75413,4.70132 -17.13942,3.01004 -19,3.20377 -19,1.9784 z m 22,-10.08298 3.5,-0.69795 -2.39747,-1.3031 c -2.80183,-1.5229 -8.97763,-0.13525 -11.17347,2.51058 -1.38295,1.66635 -0.65613,1.62958 10.07094,-0.50953 z m 81.30728,61.26704 c 0.99401,-0.28277 2.15508,-1.48812 2.58017,-2.67856 0.42508,-1.19044 0.36298,-11.12524 -0.13802,-22.07733 -0.50099,-10.9521 -0.62737,-21.42422 -0.28084,-23.27138 1.38899,-7.40392 10.71468,-14.15278 22.5947,-16.35144 11.87069,-2.19693 11.205,-1.3123 10.79142,-14.34075 -0.24307,-7.6574 -0.80284,-11.85611 -1.7295,-12.97266 -4.1353,-4.98274 -22.24299,1.90814 -31.88863,12.13521 -2.34488,2.48623 -4.50984,4.27399 -4.81102,3.97281 -0.30118,-0.30118 -0.94026,-3.32552 -1.42017,-6.72076 C 660.76404,148.25596 660.40706,148 649.40061,148 c -13.1623,0 -12.48877,-1.91961 -10.87695,31 0.71362,14.575 1.61409,33.475 2.00105,42 0.94711,20.86562 0.62047,20.40385 13.81482,19.53002 5.58826,-0.3701 10.97375,-0.90427 11.96775,-1.18703 z m 100.8367,0.21406 c 17.08135,-3.62048 25.88076,-12.9179 25.83406,-27.29615 -0.0492,-15.15475 -7.58533,-22.36586 -28.47804,-27.24991 -22.74319,-5.31664 -25.5,-6.62201 -25.5,-12.07452 0,-4.74889 2.95527,-7.18529 9.35975,-7.7164 8.17717,-0.67811 14.07458,1.7508 16.68774,6.87301 1.83364,3.59424 2.32511,3.90692 6.14092,3.90692 6.17625,0 16.57826,-2.01392 17.76066,-3.43863 1.4656,-1.76594 -1.25217,-9.26022 -5.01257,-13.82224 -6.82271,-8.27713 -22.91088,-12.65369 -39.12852,-10.64435 -9.74478,1.20736 -14.81068,3.00279 -20.72755,7.34618 -12.96525,9.51737 -13.97645,28.64449 -2.05388,38.84977 4.51488,3.86457 12.40404,6.81103 27.05382,10.10413 5.8192,1.30809 12.00018,3.11255 13.73551,4.00993 3.83252,1.98187 5.0894,5.89165 3.05766,9.51145 -2.03784,3.63065 -5.48912,5.05208 -12.30782,5.06902 -8.05284,0.02 -13.46957,-2.67424 -16.55705,-8.23535 -1.29773,-2.33745 -2.7523,-4.5149 -3.23237,-4.83877 -1.28436,-0.86646 -19.81685,1.87763 -21.36649,3.16371 -1.59397,1.32288 -0.91001,5.84655 1.66213,10.99336 2.21613,4.43446 8.96952,10.63334 13.76944,12.63887 9.96223,4.16249 27.20955,5.41315 39.3026,2.84997 z m -9.6774,-24.50298 c 0.61175,-0.98984 -4.16477,-2.61291 -10.96658,-3.72647 -3.7464,-0.61334 -3.9071,-0.54229 -2.53472,1.12063 0.80591,0.97652 2.38091,2.14663 3.5,2.60025 2.82655,1.14571 9.29444,1.14933 10.0013,0.006 z m -267.42674,-3.07439 c 3.86032,-1.96939 5.22252,-3.97301 2.71016,-3.98629 -3.72076,-0.0197 -16.75,2.47872 -16.75,3.21185 0,1.18457 3.92423,2.65491 7.28984,2.73137 1.53441,0.0349 4.57191,-0.84576 6.75,-1.95693 z m 101.44252,-1.96311 c 1.38037,-1.29678 2.36272,-2.50482 2.18301,-2.68453 -0.1797,-0.17971 -2.99043,0.1294 -6.24605,0.6869 -3.25563,0.55751 -7.41485,1.2579 -9.24273,1.55644 -2.86313,0.46762 -3.14572,0.7569 -2.04039,2.08873 2.03991,2.45794 12.12905,1.37478 15.34616,-1.64754 z m 41.03312,-7.76188 -0.64457,-4.29831 -2.57031,2.02181 c -1.41368,1.112 -3.33463,2.02181 -4.26879,2.02181 -3.19023,0 -3.11475,1.41047 0.15818,2.95617 1.79795,0.8491 4.17822,2.94243 5.2895,4.65184 l 2.02051,3.10801 0.33003,-3.08151 c 0.18151,-1.69483 0.04,-5.01575 -0.31455,-7.37982 z M 530,204.5 c 0,-2.63243 -1.61003,-3.09757 -5.48433,-1.58443 -1.83297,0.71588 -1.75669,0.89816 1,2.38968 C 529.54546,207.48557 530,207.40395 530,204.5 Z M 757.85187,174.4233 C 755.99293,172.56436 748,171.2222 748,172.76899 c 0,1.03134 5.75248,2.93236 9.46429,3.12766 1.7885,0.0941 1.82318,-0.0377 0.38758,-1.47335 z M 103.0964,211.73526 c -4.754887,-2.44363 -6.421753,-6.07543 -6.867132,-14.96223 -0.459434,-9.16723 0.528898,-12.91324 4.008492,-15.19316 3.53623,-2.31703 43.05023,-4.8614 47.43446,-3.05439 5.08682,2.09659 6.66734,5.54412 7.14769,15.59091 0.45735,9.56597 -0.56053,12.60406 -5.02304,14.99232 -1.21172,0.64849 -10.77422,1.76949 -21.25,2.49111 -23.61862,1.62696 -22.5592,1.62132 -25.45047,0.13544 z m 32.22969,-6.37296 c 11.09919,-0.62404 11.92491,-0.81574 13.43397,-3.11886 1.38105,-2.10774 1.45497,-3.51545 0.52397,-9.97784 -0.59616,-4.13815 -1.69145,-7.94017 -2.43398,-8.44894 -0.74253,-0.50877 -4.27505,-0.69203 -7.85005,-0.40723 -3.575,0.2848 -12.94717,0.82793 -20.82704,1.20696 -13.56327,0.65241 -14.40911,0.81438 -15.86629,3.03833 -1.20964,1.84614 -1.38523,3.79416 -0.82,9.09723 1.14047,10.70009 1.04964,10.62743 12.37105,9.89719 5.30325,-0.34206 14.96402,-0.92114 21.46837,-1.28684 z M 14.825006,193.96005 c -0.921247,-0.53652 -2.180909,-2.50842 -2.799251,-4.38201 -1.386724,-4.20182 0.523238,-9.5812 4.274522,-12.03913 2.281968,-1.49521 2.390749,-1.91836 1.447978,-5.63258 -0.76752,-3.02379 -0.692743,-4.68177 0.302682,-6.71113 0.727117,-1.48236 1.465237,-4.02624 1.640267,-5.65306 0.185119,-1.72061 1.571145,-4.10222 3.313516,-5.69363 C 24.652124,152.34384 26,150.64788 26,150.07971 26,149.10745 33.429281,145 35.187829,145 35.634523,145 36,147.42622 36,150.39159 c 0,4.86792 -0.234798,5.45052 -2.417403,5.99832 -3.708808,0.93085 -6.592167,6.50454 -7.005049,13.54114 -0.334087,5.69371 -0.178037,6.21724 2.400501,8.05332 5.388747,3.83713 6.287423,10.75016 1.96004,15.07754 -2.684345,2.68435 -4.289751,1.49256 -3.612366,-2.68168 0.594067,-3.6608 -1.185441,-6.39194 -4.147152,-6.36492 -3.289029,0.03 -4.678571,1.84667 -4.678571,6.11668 0,4.42996 -0.947232,5.41664 -3.674994,3.82806 z M 134.5,173 c -1.27101,-2.45786 -2.17768,-3 -5.01721,-3 -2.29336,0 -3.85801,-0.62796 -4.62508,-1.85623 -0.96623,-1.54718 -1.61681,-1.68351 -3.90754,-0.81886 -2.22408,0.8395 -3.29212,0.6697 -5.59924,-0.89018 -1.56801,-1.06015 -4.08812,-2.46981 -5.60024,-3.13258 -1.51212,-0.66276 -3.25448,-2.31374 -3.8719,-3.66883 -0.61742,-1.3551 -1.96773,-2.68482 -3.00069,-2.95495 C 101.28018,156.26051 101,155.20358 101,149.59362 101,145.96713 101.36399,143 101.80887,143 c 1.35519,0 4.02922,2.33413 6.42082,5.60466 4.75116,6.49724 13.77031,11.68093 13.77031,7.91439 0,-0.83548 0.88979,-2.40884 1.97732,-3.49637 1.21276,-1.21276 1.73786,-2.66275 1.35803,-3.75 -0.54923,-1.57213 -1.94783,-6.89324 -0.64237,-5.56294 0.80959,0.825 4.67386,11.51526 6.75995,17.29026 4.23955,11.73649 4.98498,13 7.66951,13 2.60533,0 2.42615,-3.50234 -0.27599,-5.395 -1.4511,-1.01639 -2.12529,-2.50271 -2.06689,-4.5567 0.0477,-1.67657 -0.28508,-3.0483 -0.73945,-3.0483 -1.46247,0 -2.11103,-3.20962 -0.93492,-4.62675 0.88105,-1.06159 0.79577,-1.37325 -0.37576,-1.37325 -1.67854,0 -2.72139,-2.02579 -2.74474,-5.33179 -0.008,-1.19251 -0.42413,-2.81427 -0.92379,-3.60391 -0.74955,-1.18454 -1.18198,-1.20871 -2.47195,-0.13812 -2.01581,1.67298 -4.58895,0.6802 -4.58895,-1.77052 0,-1.71877 -0.7654,-1.89947 -7.75,-1.82962 -5.90475,0.059 -8.88096,-0.43335 -12.5,-2.06804 L 99,138.11246 v 9.38801 c 0,8.4435 -0.239224,9.66612 -2.377805,12.15237 -2.28187,2.65283 -2.876973,2.793 -14.75,3.47427 -6.804707,0.39045 -18.084601,0.74658 -25.066431,0.7914 -12.006603,0.0771 -12.844925,-0.0481 -15.476063,-2.31134 -2.758837,-2.37305 -2.78505,-2.51022 -3.171954,-16.59863 -0.425374,-15.48921 0.138559,-17.89018 4.702118,-20.01948 1.48979,-0.69511 8.740138,-1.44967 16.640135,-1.73176 15.754492,-0.56257 16.187686,-0.74324 20.052003,-8.36338 1.535589,-3.02807 1.997931,-4.94399 1.349533,-5.59238 -1.68005,-1.68005 1.588987,-3.64457 3.956382,-2.37758 1.784211,0.95488 2.146742,0.57809 3.571776,-3.71229 2.135458,-6.42926 6.702466,-11.721059 12.921486,-14.972145 4.39661,-2.298393 6.39062,-2.695122 13.64882,-2.715574 7.11665,-0.02005 9.29403,0.381554 13.37891,2.467683 9.81207,5.010982 16.26144,16.461276 15.32022,27.199746 -0.69631,7.94427 -4.50204,15.70844 -9.9194,20.23679 l -4.47333,3.73924 2.5968,4.87325 c 1.89488,3.556 3.26629,4.95245 5.07363,5.16629 1.36225,0.16118 2.95482,1.25756 3.53904,2.4364 0.58422,1.17884 1.66026,2.86394 2.3912,3.74467 0.73094,0.88073 1.07397,2.57648 0.7623,3.76833 -0.31168,1.19185 -0.15723,2.93208 0.34322,3.86718 0.60791,1.13588 0.45055,2.32689 -0.47407,3.58833 -0.78007,1.06423 -1.15302,3.0479 -0.8547,4.54593 0.39641,1.99049 0.0169,2.93201 -1.51152,3.75 -3.30733,1.77003 -5.02429,1.2791 -6.6723,-1.90779 z M 75.387982,154.34537 c 9.04499,-0.55342 10.651424,-0.90128 10.390682,-2.25 -0.271212,-1.40288 -2.357796,-1.55191 -17.293545,-1.23514 -9.341815,0.19813 -17.322619,0.56219 -17.735119,0.80902 -0.4125,0.24683 -0.75,1.09723 -0.75,1.88977 0,1.65573 7.421905,1.88561 25.387982,0.78635 z M 59,144 c 1.1,-1.1 2,-3.125 2,-4.5 0,-3.00281 -3.228176,-6.5 -6,-6.5 -2.771824,0 -6,3.49719 -6,6.5 0,3.00281 3.228176,6.5 6,6.5 1.1,0 2.9,-0.9 4,-2 z m 26,-1 c 2.79084,-2.79084 2.53157,-6.43671 -0.634859,-8.92742 C 82.915969,132.93266 81.115969,132 80.365141,132 78.084903,132 75,135.83591 75,138.67126 75,144.3517 81.035633,146.96437 85,143 Z m 43.82332,-0.33287 C 129.0147,141.68037 128.50456,141 127.57332,141 126.64569,141 126,141.855 126,143.08333 c 0,2.43705 2.33677,2.09257 2.82332,-0.4162 z m -6.51614,-2.72572 c 6.37645,-1.6099 13.22839,-7.11807 16.40463,-13.18744 3.66392,-7.00125 3.95343,-19.01653 0.60851,-25.25397 -9.0108,-16.802872 -32.44186,-19.690413 -44.592297,-5.49536 -8.815453,10.29888 -8.648651,25.12365 0.398325,35.40156 7.446842,8.46006 16.374612,11.26352 27.180832,8.53521 z M 107,136.73842 C 101.65533,134.96502 94.601851,127.32808 92.520216,121.06086 86.409083,102.66197 102.89705,85.048951 121.24,90.381391 c 20.22673,5.880071 24.16135,33.056759 6.37774,44.051519 -5.46286,3.37743 -14.38152,4.37473 -20.61774,2.30551 z m 17.51047,-2.31574 c 7.63436,-3.16828 12.82427,-11.62594 12.83889,-20.92268 0.0143,-9.09076 -4.54325,-16.284796 -12.73233,-20.097842 -19.88681,-9.259809 -38.870202,10.649932 -29.013649,30.429462 5.439329,10.91531 17.488349,15.32987 28.907089,10.59106 z M 109,126.29629 c -2.84185,-1.03408 -6.90422,-5.58374 -7.53011,-8.43337 -0.345,-1.5708 -0.11183,-4.41783 0.51817,-6.32673 3.52093,-10.66854 17.31531,-11.585359 22.53192,-1.49755 1.99156,3.85126 1.85762,6.82981 -0.4795,10.66281 -3.09112,5.06961 -9.71371,7.53312 -15.04048,5.59484 z m 9.90881,-2.74913 c 8.67105,-4.48398 5.16137,-18.64436 -4.68505,-18.90255 -5.20882,-0.13658 -8.87348,2.45422 -10.32518,7.29956 -2.77582,9.26487 6.16566,16.17669 15.01023,11.60299 z m -8.85766,-4.49601 C 107.7079,116.7079 107.26847,112 109.39301,112 c 0.76616,0 1.65203,-0.675 1.96862,-1.5 0.31658,-0.825 1.21658,-1.5 2,-1.5 0.78341,0 1.68341,0.675 2,1.5 0.31658,0.825 1.26472,1.5 2.10699,1.5 1.89389,0 2.11419,5.28883 0.28138,6.75517 -2.82233,2.25799 -5.62894,2.36589 -7.69885,0.29598 z M 86.930194,118.7566 C 86.418587,116.97273 86,114.20299 86,112.60161 c 0,-2.89686 -0.01065,-2.90195 -2.10641,-1.0066 C 82.029076,113.28124 78,120.02542 78,121.46016 78,121.75707 80.218587,122 82.930194,122 h 4.930195 z m 207.877486,12.42563 c -4.49447,-3.52697 -4.70139,-3.91413 -4.90753,-9.18223 -0.11837,-3.025 -0.17932,-6.15252 -0.13545,-6.95005 0.0439,-0.79753 -0.5001,-2.59753 -1.20882,-4 -0.70872,-1.40247 -1.59304,-4.23171 -1.96515,-6.2872 -0.41723,-2.30468 -2.61148,-6.137886 -5.72433,-9.999998 C 272.88037,84.854498 271.52776,81.68713 271.57267,73 271.65918,56.269616 282.72987,44.855716 299,44.722368 c 10.65935,-0.08736 19.34367,4.981093 24.3756,14.226394 5.44486,10.004008 4.54242,19.330688 -3.11405,32.183652 -4.19417,7.040785 -5.33082,13.108046 -5.2676,28.117586 0.0203,4.8125 -0.35713,8.75 -0.83867,8.75 -0.48153,0 -2.54551,1.575 -4.5866,3.5 -4.94299,4.66183 -8.51335,4.58497 -14.761,-0.31777 z m 10.94232,2.18748 c 3.13896,-0.84121 2.81399,-2.37251 -0.5,-2.35606 -4.48512,0.0223 -7.64772,1.11888 -6.08453,2.10977 1.57789,1.00022 3.50263,1.07221 6.58453,0.24629 z m 6.29977,-5.39635 C 313.1224,127.39931 314,126.09265 314,125.06968 c 0,-1.80942 -0.16544,-1.80847 -6.08909,0.0352 -3.34901,1.04233 -7.3622,1.89514 -8.91822,1.89514 -4.21729,0 -6.50503,1.0411 -4.82654,2.19644 1.64652,1.13334 15.21447,0.20541 17.88362,-1.22308 z m -3.50667,-4.69551 c 5.10058,-1.89381 7.68451,-5.00696 3.33741,-4.02096 C 300.68139,121.79705 292,124.42104 292,125.26586 c 0,1.46316 10.71655,0.17534 16.5431,-1.98801 z M 304.5,119.66796 c 6.87812,-1.86394 8.04668,-2.49778 8.3329,-4.51986 0.32058,-2.26481 0.17244,-2.32053 -4,-1.50472 -2.38309,0.46596 -7.3704,0.71698 -11.0829,0.55782 -6.23835,-0.26744 -6.75,-0.13354 -6.75,1.76653 0,1.83343 0.45991,1.99976 4.25,1.53711 l 4.25,-0.5188 -3,1.46187 c -1.65,0.80404 -3.5625,1.48218 -4.25,1.50699 -0.6875,0.0248 -1.25,0.4951 -1.25,1.0451 0,1.52361 4.65853,1.06396 13.5,-1.33204 z m -7.6897,-12.72853 c 0.37027,-6.44746 -0.94135,-12.113683 -4.88587,-21.107043 C 290.316,82.165199 289,78.677699 289,78.082387 c 0,-2.065895 2.6851,-1.068937 3.81805,1.417613 1.80194,3.954831 6.261,2.75435 4.71677,-1.269862 -0.55289,-1.440798 -0.77213,-1.468963 -1.5733,-0.202113 -0.73575,1.1634 -0.9341,1.000299 -0.94621,-0.778025 -0.0202,-2.974814 1.74506,-2.870035 3.13759,0.18623 2.38871,5.242658 -2.59839,7.865885 -5.76531,3.032562 -2.93535,-4.479919 -2.49552,-1.98567 0.99149,5.622706 C 297.14275,94.3035 299,101.75928 299,108.65621 c 0,3.74525 0.28199,4.44956 1.58179,3.95078 0.86998,-0.33385 2.10748,-0.60699 2.75,-0.60699 0.81961,0 1.1948,-3.50626 1.25733,-11.75 0.0698,-9.208271 0.54364,-13.042784 2.19033,-17.726329 2.33358,-6.637195 2.22315,-8.363164 -0.23139,-3.616601 -2.09708,4.05529 -3.30463,3.907438 -4.1326,-0.505988 -0.4735,-2.52398 -0.93048,-3.196019 -1.53,-2.25 -0.6621,1.044782 -0.85829,0.954352 -0.87015,-0.401082 -0.0294,-3.365832 2.75695,-1.776034 3.50535,2 l 0.74324,3.75 1.37092,-3.25 c 0.754,-1.7875 2.04463,-3.25 2.86805,-3.25 1.86533,0 1.86221,0.516135 -0.0399,6.591069 -2.61018,8.336522 -3.49772,15.602474 -2.82887,23.158931 0.69136,7.81081 1.71256,8.79674 6.00054,5.79333 1.57337,-1.10204 2.21103,-2.90521 2.6192,-7.40657 0.41816,-4.611527 1.63122,-7.939139 5.39282,-14.793329 4.59771,-8.377712 4.85225,-9.238401 4.83345,-16.343431 -0.0217,-8.186234 -1.22687,-11.364069 -6.65417,-17.545416 -4.96392,-5.653589 -10.15966,-7.894012 -18.32598,-7.902227 -8.33389,-0.0084 -13.06866,1.977282 -19.11658,8.017101 -5.30566,5.298554 -7.83299,12.536007 -7.12069,20.391342 0.60475,6.669259 2.93359,11.522027 9.07693,18.914232 2.99725,3.606555 5.01461,7.326858 6.13147,11.307308 1.19013,4.24161 2.28642,6.18187 3.84669,6.80802 3.50649,1.40721 4.16406,0.6679 4.49248,-5.05093 z m 3.53478,-26.482558 c -0.32569,-0.848721 -0.36872,-1.766569 -0.0956,-2.039663 0.27309,-0.273095 0.73656,0.421313 1.02992,1.543128 0.62315,2.382929 -0.0692,2.750891 -0.9343,0.496535 z"
       id="path1"
       sodipodi:nodetypes="sssssssssssssscsssssssscccssssssssssssssssscsssssscssscssssssscsscsssssssscsscsssccsssssscssscssssssscsssscscsscssssscsssssssssssscssssssssscsssscssssssssssssssssssssssssssssssssssssssssscsssssssssssssssssssssscssssssssssssssssssscsssssssssssssssssssssssssssssssssssssssscsssccsssssssssssscsssscsssssssssssssssssssssssssssssssssssssssssssssssssssssssssssssssssssscssscscssssssssssssssssscssssssssssssssssssssssssssssssssssssssssssssssssscsssssssssssssssssssscsssssssssssssssssssssssssssssssssssscsssssssssssssssssssssssscssssssssssssssssssssss" />
    <path
       style="fill:#0494da;stroke:#0494da;stroke-width:0.460023;stroke-opacity:1;fill-opacity:1"
       d="m 170.55967,243.46692 c -2.37258,-2.56046 -2.57579,-5.25941 -4.71917,-62.67807 -0.255,-6.83133 -0.67004,-17.90638 -0.9223,-24.6112 -0.61354,-16.30752 -0.55518,-29.25203 0.14084,-31.23845 0.30199,-0.86184 1.13294,-2.0004 1.84656,-2.53012 1.17774,-0.87424 2.03426,-0.97721 9.27988,-1.1156 9.2694,-0.17704 15.05459,0.37474 16.36527,1.56088 1.9678,1.78084 2.60243,6.5815 3.21936,24.35285 0.27228,7.84338 0.74339,15.81327 1.04692,17.71086 l 0.55187,3.45017 10.81334,-13.57066 c 5.94733,-7.46387 14.94795,-18.81039 20.00136,-25.21449 l 9.18802,-11.64382 8.28041,0.28402 c 15.28148,0.52416 20.34183,1.53894 21.71143,4.3539 0.46234,0.95025 0.39948,1.39977 -0.39288,2.80958 -1.35057,2.40301 -7.77506,10.85019 -15.53752,20.42934 -8.59426,10.60563 -15.63604,19.97926 -15.95669,21.24068 -0.27565,1.08446 1.79309,4.36283 22.59904,35.81314 16.58534,25.07043 20.00388,30.45486 20.31123,31.9916 0.22015,1.10077 -0.0109,1.61991 -1.29022,2.89926 -1.2271,1.2271 -2.282,1.72297 -4.96219,2.33257 -4.07711,0.92732 -12.82963,1.61664 -20.76072,1.63506 l -5.77908,0.0134 -9.3602,-15.75578 c -12.32945,-20.75384 -20.54256,-34.13201 -21.382,-34.82868 -1.25887,-1.04477 -3.64818,1.37774 -13.66443,13.85429 l -2.0887,2.60177 -0.2754,14.41907 c -0.32772,17.15917 -0.68878,18.9856 -4.00416,20.25539 -1.20118,0.46005 -18.16851,2.21312 -21.42587,2.21372 -1.35379,2.5e-4 -2.14148,-0.28733 -2.834,-1.0347 z"
       id="path33" />
    <path
       style="fill:#0494da;stroke:#0494da;stroke-width:0.460023;fill-opacity:1;stroke-opacity:1"
       d="m 294.75943,242.18165 c -0.82229,-0.25637 -1.49684,-0.61546 -1.49901,-0.79798 -0.002,-0.18253 -0.2042,-2.60898 -0.44898,-5.39212 -0.87226,-9.9176 -2.66911,-78.89066 -2.13008,-81.76397 0.28374,-1.51243 0.5381,-1.76925 2.25643,-2.27824 2.59907,-0.76987 17.81174,-0.77712 20.398,-0.01 2.05295,0.60915 2.53269,1.34992 3.36288,5.19262 2.03471,9.41807 5.79536,77.65499 4.47946,81.27948 -0.53389,1.47051 -2.37739,2.28278 -7.05641,3.10911 -5.00541,0.88398 -17.30057,1.3036 -19.36229,0.66082 z"
       id="path34" />
    <path
       style="fill:#0494da;stroke:#0494da;stroke-width:0.460023;fill-opacity:1;stroke-opacity:1"
       d="m 342.97197,241.1895 c -1.62111,-0.86438 -2.66477,-2.92913 -3.20868,-6.348 -0.26164,-1.64458 -1.00186,-13.44416 -1.64494,-26.22129 -0.64307,-12.77712 -1.47457,-28.6134 -1.84776,-35.19172 -0.73831,-13.01422 -0.8629,-21.32239 -0.3321,-22.14453 0.60476,-0.9367 12.90069,-2.92224 18.11619,-2.9254 1.85162,-0.001 2.31934,0.20586 3.49759,1.54781 1.26919,1.44553 1.64517,2.49937 3.35372,9.40012 0.83012,3.35284 1.67817,3.20113 7.33631,-1.31241 7.23299,-5.76982 14.9398,-8.65201 24.21089,-9.05438 10.19657,-0.44254 16.38065,1.72556 22.50056,7.88855 5.87008,5.91139 7.82922,10.75277 9.0445,22.35052 0.68576,6.54449 0.86154,50.56664 0.22265,55.76145 -0.46826,3.8074 -1.74939,5.8876 -3.99033,6.47914 -1.76904,0.46697 -13.86676,-0.24995 -18.75836,-1.11164 -4.76645,-0.83964 -4.9328,-1.11179 -4.9328,-8.07015 0,-3.24857 0.29792,-13.43577 0.66204,-22.63823 0.73815,-18.65529 0.43015,-25.81004 -1.3106,-30.44425 -1.76589,-4.70115 -5.33476,-6.90964 -11.19884,-6.93006 -5.75765,-0.02 -11.47138,2.5508 -15.71077,7.06894 -3.54871,3.78203 -3.93147,5.00502 -3.94327,12.5994 -0.0114,7.31355 0.60056,19.04761 1.61117,30.89555 0.98307,11.52504 0.92584,13.96094 -0.35621,15.1619 -1.46184,1.36939 -3.13949,1.91376 -8.15227,2.6453 -7.04311,1.02782 -13.8542,1.29426 -15.16869,0.59338 z"
       id="path35" />
    <path
       style="fill:#800080;stroke:#800080;stroke-width:0.460023"
       d=""
       id="path36" />
    <path
       style="fill:#0494da;stroke:#0494da;stroke-width:0.460023;fill-opacity:1;stroke-opacity:1"
       d="m 469.22297,240.40593 c -16.79123,-4.55141 -28.24393,-17.50319 -31.06897,-35.13569 -0.78671,-4.91027 -0.33532,-14.14768 0.93778,-19.19113 2.74692,-10.88202 12.27158,-24.58215 21.02011,-30.23503 2.92579,-1.89051 8.0311,-3.75413 13.71131,-5.00512 4.36338,-0.96098 16.71355,-1.36975 20.6537,-0.6836 14.44289,2.51512 26.42498,14.42335 30.44046,30.2528 0.97772,3.85431 2.35403,13.7891 1.96426,14.17888 -0.0893,0.0893 -11.75353,1.94501 -25.92041,4.1237 -37.40392,5.75225 -35.86216,5.39519 -35.35125,8.1871 0.98086,5.35995 5.53076,10.83988 10.61245,12.7817 5.37014,2.05203 11.7617,1.66544 17.25271,-1.04353 3.19689,-1.57717 8.69035,-6.79686 10.24954,-9.73874 0.91355,-1.72368 0.9358,-1.73388 3.1506,-1.44465 2.84181,0.37112 12.21045,3.18811 15.36312,4.61944 3.74143,1.69862 3.91765,2.58 1.49462,7.47512 -4.29098,8.66881 -16.33156,17.95564 -26.75611,20.63685 -2.16122,0.55587 -5.70184,0.79373 -13.72323,0.92195 -9.52654,0.15228 -11.19299,0.0691 -14.03069,-0.70005 z m 12.63756,-53.40084 c 14.26467,-2.41749 15.94372,-2.79367 16.71376,-3.74463 1.00829,-1.24518 0.83304,-2.64865 -0.76717,-6.14397 -2.97177,-6.4912 -8.89705,-9.39786 -17.18631,-8.43079 -8.08995,0.94383 -14.80574,7.83983 -16.30097,16.73838 -0.61611,3.66665 -0.34834,5.05728 0.88181,4.57958 0.44064,-0.17111 7.93714,-1.52047 16.65888,-2.99857 z"
       id="path37" />
    <path
       style="fill:#0494da;stroke:#0494da;stroke-width:0.460023;fill-opacity:1;stroke-opacity:1"
       d="m 575.10401,241.23737 c -15.86538,-2.31852 -28.51294,-11.39681 -33.96898,-24.38257 -6.25373,-14.88432 -4.7131,-33.60335 3.83763,-46.62827 6.85087,-10.43561 19.93238,-18.6668 32.61317,-20.52098 5.09348,-0.74477 14.28956,-0.3024 18.96527,0.91229 11.90527,3.09285 21.91475,12.93376 26.37249,25.92832 2.13243,6.21619 3.38518,14.30976 2.55101,16.48118 -0.56266,1.46466 -0.11988,1.37049 -22.38507,4.76104 -26.19034,3.98828 -36.88574,5.917 -38.21938,6.89218 -0.65708,0.48047 -0.63681,0.78719 0.21152,3.20083 2.9078,8.27322 8.43335,12.24724 17.01028,12.23393 7.42312,-0.0115 11.4285,-1.96111 18.03733,-8.77953 l 4.86014,-5.01427 7.56047,2.33249 c 12.54426,3.87004 13.31037,4.64678 10.32539,10.46873 -2.10581,4.10717 -8.26745,10.64977 -13.05374,13.8608 -3.68261,2.4706 -9.08378,5.17417 -12.86136,6.4378 -5.9759,1.99898 -15.30179,2.77387 -21.85617,1.81603 z m 3.83433,-54.28718 c 11.11506,-1.92568 16.60728,-3.13042 17.82588,-3.91017 3.54085,-2.2657 -2.51098,-12.18086 -8.68674,-14.23212 -1.72969,-0.57451 -3.42351,-0.72741 -6.54163,-0.5905 -3.55443,0.15607 -4.7031,0.41676 -7.39967,1.67938 -5.10887,2.39213 -7.77122,5.95716 -10.33806,13.84319 -1.18141,3.6296 -1.22184,4.97956 -0.15552,5.19283 1.19531,0.23906 6.26562,-0.41814 15.29574,-1.98261 z"
       id="path38" />
    <path
       style="fill:#0494da;stroke:#0494da;stroke-width:0.460023;fill-opacity:1;stroke-opacity:1"
       d="m 646.37298,240.47528 c -3.24802,-0.45817 -4.51868,-2.8451 -5.08063,-9.54397 -0.69619,-8.29907 -3.52316,-72.5725 -3.30816,-75.21369 0.32796,-4.02891 1.05108,-5.8708 2.6242,-6.6843 1.80801,-0.93496 15.41115,-0.96526 17.62736,-0.0393 1.87018,0.78141 2.73415,2.73155 3.48973,7.87695 0.69883,4.75887 1.32239,7.12703 1.87663,7.12703 0.2443,0 2.25467,-1.68206 4.46749,-3.73791 2.21282,-2.05585 5.26537,-4.6244 6.78344,-5.7079 6.55085,-4.67553 14.58502,-8.00217 19.73283,-8.17059 3.49575,-0.11437 5.13107,0.64358 5.80692,2.69143 1.10918,3.36083 1.79736,19.26544 0.93208,21.54129 -0.69616,1.83105 -2.20866,2.49849 -8.56196,3.77824 -9.94687,2.0036 -16.0325,4.88268 -20.50579,9.70118 -3.9027,4.20388 -3.84439,3.9505 -3.84439,16.70606 0,6.1988 0.1035,16.78517 0.23001,23.52526 0.29384,15.65553 0.87143,14.73526 -9.76257,15.55478 -9.30355,0.71699 -11.05445,0.80034 -12.50719,0.59541 z"
       id="path39" />
    <path
       style="fill:#0494da;stroke:#0494da;stroke-width:0.460023;fill-opacity:1;stroke-opacity:1"
       d="m 745.6512,240.32142 c -5.191,-0.46366 -12.73435,-1.97672 -16.06206,-3.22178 -3.66557,-1.37147 -7.48698,-4.09519 -11.13767,-7.93842 -3.43005,-3.61094 -5.38057,-7.08066 -6.21393,-11.05373 -0.78538,-3.74431 -0.33061,-4.73977 2.52843,-5.53451 3.76205,-1.04577 11.28032,-2.15322 15.29144,-2.25244 l 3.64785,-0.0902 2.77547,4.14021 c 4.42842,6.60594 8.4298,8.64839 17.03616,8.69584 5.70976,0.0315 8.53633,-0.72797 10.82157,-2.90759 3.25391,-3.10352 3.54668,-7.49013 0.69053,-10.34628 -1.89647,-1.89647 -5.40437,-3.11112 -17.45316,-6.04335 -19.88228,-4.83862 -26.43319,-8.40503 -30.83891,-16.78912 -5.55907,-10.57893 -2.45865,-23.73307 7.33547,-31.12218 5.40983,-4.08142 10.65547,-6.07341 19.09217,-7.25013 15.97627,-2.2283 31.37182,1.28917 39.09192,8.93146 3.8387,3.8 7.41498,11.29318 6.71707,14.07387 -0.19043,0.75876 -0.87174,1.24798 -2.44948,1.75889 -3.63856,1.17825 -10.03683,2.18547 -14.44221,2.27349 -4.67794,0.0935 -4.33987,0.29828 -7.43226,-4.50246 -2.93438,-4.55543 -7.83893,-6.50967 -15.35231,-6.11719 -7.28982,0.3808 -10.40254,2.7636 -10.40254,7.96319 0,5.33582 2.31204,6.53561 22.09672,11.46667 5.62909,1.40297 11.59412,3.06254 13.25562,3.68793 13.22148,4.97655 18.18705,11.40428 18.30637,23.69683 0.0611,6.29263 -0.94173,10.17324 -3.75282,14.52254 -5.00415,7.7424 -15.55778,12.75921 -29.3946,13.9731 -6.03578,0.52951 -7.68276,0.52776 -13.75484,-0.0146 z"
       id="path40" />
    <path
       style="fill:#0494da;stroke:#0494da;stroke-width:0.460023;fill-opacity:1;stroke-opacity:1"
       d="m 104.82006,206.11529 c -1.72313,-0.74979 -2.23539,-2.08874 -2.90897,-7.6035 -0.97922,-8.01706 -0.32518,-11.04602 2.65393,-12.29077 1.09123,-0.45595 6.45234,-0.9529 17.05656,-1.58107 19.66965,-1.16519 24.09828,-1.25353 25.00761,-0.49885 0.88952,0.73823 2.02508,5.22969 2.72673,10.78496 0.50143,3.97011 0.47438,4.4546 -0.34209,6.12742 -1.58362,3.24457 -2.04172,3.33874 -22.36693,4.59797 -20.9655,1.29889 -19.957,1.27746 -21.82684,0.46384 z"
       id="path41" />
    <path
       style="fill:#b3b3b3;stroke:#806600;stroke-width:0.00658702;stroke-dasharray:none;stroke-opacity:1"
       d="m 292.12461,121.78108 c -0.49628,-0.0906 -0.88461,-0.31755 -1.01895,-0.59552 -0.0898,-0.18583 -0.0854,-0.26176 0.029,-0.50287 0.18218,-0.38393 0.57608,-0.60845 1.22991,-0.70104 0.62979,-0.0892 1.87829,-0.49234 2.96852,-0.95855 1.37645,-0.5886 4.25844,-2.03224 4.06736,-2.03741 -0.1029,-0.003 -1.23734,0.12212 -2.52096,0.27755 -3.13922,0.38013 -4.09667,0.46337 -4.59619,0.39962 -0.84368,-0.10769 -1.14543,-0.43169 -1.23121,-1.32198 -0.0699,-0.72515 0.0621,-1.36592 0.3412,-1.65728 0.12459,-0.13004 0.41549,-0.28932 0.66977,-0.36673 0.49958,-0.15209 1.06451,-0.15925 7.64646,-0.0969 4.68522,0.0444 6.75016,-0.0993 10.00751,-0.69639 0.87959,-0.16124 1.81101,-0.28371 2.15754,-0.28371 0.53899,0 0.63295,0.0232 0.80939,0.1996 0.16693,0.16693 0.19914,0.27677 0.19677,0.6709 -0.004,0.65926 -0.19159,1.64115 -0.38665,2.0235 -0.5472,1.0726 -2.04605,1.79603 -6.15688,2.97165 -3.9875,1.14035 -8.34674,2.15695 -10.73454,2.50335 -1.33457,0.19361 -2.92847,0.27253 -3.47804,0.17222 z"
       id="path46" />
    <path
       style="fill:#b3b3b3;stroke:#806600;stroke-width:0.00658702;stroke-dasharray:none;stroke-opacity:1"
       d=""
       id="path47" />
    <path
       style="fill:#b3b3b3;stroke:#806600;stroke-width:0.00658702;stroke-dasharray:none;stroke-opacity:1"
       d="m 292.97637,125.75984 c -0.50673,-0.0913 -0.91106,-0.28286 -0.91106,-0.43169 0,-0.30426 0.85246,-0.7461 2.76031,-1.43072 3.02111,-1.0841 9.22322,-2.78019 15.33235,-4.19293 2.49171,-0.57622 3.28529,-0.68809 3.62012,-0.51036 1.02604,0.54465 -1.58378,2.59646 -4.99869,3.92991 -2.72182,1.06282 -6.87189,2.00057 -11.14358,2.51801 -1.27751,0.15475 -4.06331,0.22517 -4.65945,0.11778 z"
       id="path48" />
    <path
       style="fill:#b3b3b3;stroke:#806600;stroke-width:0.00658702;stroke-dasharray:none;stroke-opacity:1"
       d="m 296.53798,129.61764 c -1.62046,-0.14625 -2.241,-0.31411 -2.64137,-0.71448 -0.64487,-0.64487 0.20987,-1.30756 2.11278,-1.63806 0.40254,-0.0699 1.46378,-0.16102 2.35832,-0.20246 2.87448,-0.13317 5.41221,-0.66719 10.57461,-2.22526 2.86514,-0.86473 3.53835,-1.03635 4.13086,-1.05305 0.43158,-0.0122 0.49275,0.008 0.67994,0.22531 0.19432,0.22549 0.20376,0.27942 0.17078,0.97586 -0.0301,0.63462 -0.0723,0.81032 -0.30371,1.263 -0.34336,0.67172 -1.11703,1.44911 -1.72887,1.73719 -1.26981,0.59788 -4.47978,1.14471 -8.685,1.47951 -1.52032,0.12104 -5.90553,0.22129 -6.66834,0.15244 z"
       id="path49" />
    <path
       style="fill:#b3b3b3;stroke:#806600;stroke-width:0.00658702;stroke-dasharray:none;stroke-opacity:1"
       d=""
       id="path50" />
    <path
       style="fill:#b3b3b3;stroke:#806600;stroke-width:0.00658702;stroke-dasharray:none;stroke-opacity:1"
       d="m 300.89588,133.76171 c -0.99798,-0.21395 -2.0809,-0.81732 -2.0809,-1.15941 0,-0.36199 0.70538,-0.76085 1.86349,-1.05371 1.67527,-0.42364 4.9104,-0.60662 6.09217,-0.34457 1.96915,0.43664 1.2032,1.55664 -1.53129,2.23911 -1.82495,0.45546 -3.22571,0.55821 -4.34347,0.31858 z"
       id="path51" />
    <path
       style="fill:#ffd42a;stroke:#806600;stroke-width:0.013174;stroke-dasharray:none;stroke-opacity:1"
       d="m 299.55137,112.42664 c -0.32465,-0.41956 -0.38138,-0.91057 -0.52877,-4.57667 -0.30975,-7.7046 -1.68261,-13.001205 -5.7801,-22.300003 -2.8596,-6.489538 -3.41476,-8.487676 -1.68846,-6.077157 1.46264,2.042352 1.95969,2.588263 2.79042,3.064684 1.67608,0.96123 3.35951,0.567048 4.15787,-0.973581 0.32627,-0.629612 0.36726,-0.894523 0.29663,-1.916843 -0.14259,-2.06383 -1.63675,-4.587546 -2.71605,-4.587546 -0.77523,0 -1.04273,0.515105 -1.10618,2.130103 -0.0498,1.2666 -0.021,1.459603 0.23221,1.556756 0.20265,0.07776 0.36542,-0.0062 0.54473,-0.28109 0.14065,-0.215596 0.45152,-0.61266 0.69083,-0.882365 l 0.43511,-0.490372 0.41718,0.894534 c 0.75146,1.611341 0.49225,3.112771 -0.62927,3.644968 -1.13864,0.54032 -2.6562,-0.210031 -3.46475,-1.713133 -0.73355,-1.363675 -1.58947,-2.353673 -2.35552,-2.724511 -0.3929,-0.190202 -0.83764,-0.345822 -0.9883,-0.345822 -0.43511,0 -0.92451,0.604062 -0.92451,1.141105 0,0.618158 1.12649,3.737379 2.5283,7.000815 2.88041,6.705622 4.09018,10.318613 4.89801,14.628033 0.2245,1.197575 0.29072,2.404765 0.29443,5.367205 0.006,4.76938 -0.2869,6.54813 -1.19937,7.28446 -0.38302,0.30909 -1.88679,0.14168 -2.9435,-0.32769 -1.69292,-0.75195 -2.31585,-1.79785 -3.84787,-6.46057 -1.66824,-5.07732 -3.01449,-7.588966 -6.23756,-11.637214 -4.72378,-5.933164 -6.55182,-8.936903 -7.86907,-12.930081 -1.71054,-5.18538 -1.70849,-11.731202 0.005,-16.748138 1.30105,-3.808811 3.08747,-6.623817 6.15065,-9.692082 4.50008,-4.507541 8.3663,-6.650937 13.50662,-7.48794 2.63684,-0.429359 8.09955,-0.39422 10.65309,0.06853 5.6062,1.015942 9.31956,3.311432 13.72985,8.487401 3.27575,3.84446 4.74922,6.693971 5.38955,10.422705 0.34524,2.010379 0.5053,8.653213 0.25868,10.735517 -0.36712,3.099624 -0.96516,4.651702 -3.90653,10.138514 -4.7496,8.859842 -5.53552,10.947333 -6.18911,16.438838 -0.65897,5.53664 -1.2473,6.6585 -4.30716,8.21306 -2.26264,1.14953 -3.12166,0.31232 -3.75436,-3.65907 -0.45267,-2.84136 -0.61712,-5.78416 -0.51806,-9.270617 0.1693,-5.958967 0.91113,-10.090277 3.1249,-17.40275 0.64692,-2.136885 1.11774,-4.010929 1.16888,-4.652614 0.0791,-0.991939 0.0563,-1.095014 -0.29601,-1.341801 -1.36552,-0.956442 -2.93445,0.479753 -4.46275,4.08519 -0.42701,1.007354 -0.79395,1.812435 -0.81544,1.789068 -0.0215,-0.02337 -0.22874,-0.982698 -0.46056,-2.131847 -0.47728,-2.365949 -1.03068,-3.750668 -1.78143,-4.457542 -0.72337,-0.681083 -1.1921,-0.759888 -1.67105,-0.280937 -0.33563,0.335627 -0.38868,0.543758 -0.38868,1.524967 0,0.62496 0.0688,1.178807 0.15287,1.23077 0.0841,0.05196 0.35854,-0.163282 0.60991,-0.478324 0.25137,-0.315042 0.53678,-0.572804 0.63424,-0.572807 0.27283,-8e-6 0.51668,0.664157 0.95222,2.593611 0.44244,1.959973 0.72065,2.730036 1.1366,3.145983 0.73757,0.737566 1.66293,0.01936 2.92676,-2.271563 1.15291,-2.089857 1.7357,-2.989313 1.87936,-2.900526 0.21294,0.131607 -0.24976,1.954996 -1.38307,5.450263 -1.89216,5.835705 -2.13915,7.675711 -2.35784,17.565393 -0.19156,8.662703 -0.42907,11.612273 -0.99029,12.297943 -0.0815,0.0996 -0.53901,0.22702 -1.01665,0.28316 -0.47764,0.0561 -1.18147,0.21251 -1.56408,0.3475 -0.84654,0.29868 -1.21582,0.30961 -1.42279,0.0421 z m 1.967,-31.305304 c -0.0239,-0.935009 -0.4553,-2.366596 -0.79919,-2.651997 -0.73472,-0.609764 -0.96647,0.68083 -0.38691,2.154671 0.63347,1.610936 1.22084,1.857219 1.1861,0.497326 z"
       id="path52" />
    <path
       style="fill:#b3b3b3;stroke-width:0.115006"
       d="m 112.87803,140.82401 c -5.84048,-0.44994 -10.95379,-2.83693 -15.607461,-7.28586 -8.092081,-7.73608 -10.943655,-18.38905 -7.608235,-28.423 2.778288,-8.357933 9.399354,-14.744406 17.752926,-17.12392 4.18172,-1.191162 9.03165,-1.316249 13.39062,-0.345365 4.00963,0.893073 8.26151,2.912603 11.39309,5.411415 3.58737,2.8625 6.72932,7.06818 8.02682,10.74435 2.2574,6.39585 1.62775,16.48118 -1.40787,22.55026 -1.88699,3.77262 -5.28915,7.48346 -9.37908,10.23005 -1.48869,0.99972 -4.27466,2.38615 -5.80779,2.89021 -3.17145,1.04273 -7.5767,1.59655 -10.75302,1.35186 z m 6.08737,-3.32743 c 5.46558,-0.93246 9.25686,-2.77873 12.87137,-6.26809 4.59049,-4.43154 7.14754,-10.56445 7.14754,-17.1429 0,-6.58285 -2.6181,-13.01489 -7.13691,-17.533697 -3.84524,-3.845243 -9.03853,-6.358625 -14.52086,-7.027617 -1.84845,-0.225561 -5.55868,-0.0794 -7.29707,0.287467 -5.17443,1.091993 -9.82175,3.88029 -13.222113,7.932983 -2.853763,3.401234 -4.705674,7.530564 -5.394356,12.028154 -0.240776,1.57243 -0.269392,5.05532 -0.05386,6.55532 0.839294,5.8411 3.230796,10.34865 8.05912,15.18997 4.002959,4.01373 6.735289,5.48046 11.447169,6.1449 1.74018,0.24539 6.22622,0.15318 8.09997,-0.16649 z"
       id="path2" />
    <path
       style="fill:#b3b3b3;stroke-width:0.0575028"
       d="m 138.2114,173.88887 c -1.07899,-0.24433 -1.83332,-1.02035 -2.75036,-2.82942 -0.91615,-1.80734 -1.7065,-3.82854 -4.4714,-11.43495 -2.32705,-6.40186 -3.95166,-10.74195 -4.78266,-12.77668 -0.0215,-0.0527 0.0611,-0.0719 0.30973,-0.0719 0.70379,0 1.39598,-0.2827 2.17451,-0.88809 1.09211,-0.84923 1.42878,-0.89694 1.97833,-0.28036 0.73299,0.8224 1.17377,2.24094 1.27431,4.10109 0.11916,2.20474 0.37701,3.32408 0.97658,4.23941 0.47426,0.72405 0.91432,0.97736 1.88017,1.0823 1.02091,0.11093 1.07747,0.24357 0.45937,1.07721 -0.65161,0.87883 -0.82283,1.42428 -0.77108,2.45651 0.0661,1.31925 0.63214,2.32359 1.37803,2.44525 0.32548,0.0531 0.47501,0.20595 0.61133,0.62495 0.18796,0.57774 0.23842,1.00714 0.28999,2.46753 0.0443,1.25342 0.0643,1.44267 0.20188,1.90889 0.30175,1.02234 0.79315,1.77291 1.55415,2.37381 1.17026,0.92407 1.62995,1.43288 2.01146,2.22641 0.30194,0.62803 0.39862,1.0136 0.39653,1.58133 -0.003,0.7595 -0.3622,1.34666 -0.99625,1.62764 -0.34297,0.152 -1.20579,0.18654 -1.72462,0.0691 z"
       id="path4" />
    <path
       style="fill:#b3b3b3;stroke-width:0.0575028"
       d="m 126.76499,144.64123 c -0.64178,-0.25591 -0.92555,-1.42047 -0.59377,-2.43677 0.22518,-0.68975 0.66171,-1.08723 1.27333,-1.15943 0.40314,-0.0476 0.74571,0.0682 1.02351,0.34603 0.36525,0.36525 0.44758,0.79334 0.27853,1.44823 -0.32817,1.27126 -1.23789,2.0985 -1.9816,1.80194 z"
       id="path5" />
    <path
       style="fill:#0494da;stroke-width:0.115006;fill-opacity:1"
       d="m 111.48061,124.78186 c -4.10957,-0.78161 -7.10906,-3.69742 -7.85161,-7.63258 -0.74035,-3.92347 1.05627,-8.59591 4.11424,-10.69985 0.80186,-0.55169 2.0884,-1.1283 3.12219,-1.39932 1.33277,-0.34939 3.61646,-0.42938 4.89201,-0.17135 3.8343,0.77566 6.68951,3.67733 7.72329,7.84896 0.19611,0.79135 0.24949,1.33981 0.24411,2.50792 -0.008,1.81331 -0.24457,2.82849 -1.02881,4.42135 -1.47145,2.98864 -5.07719,5.0713 -9.07047,5.23907 -0.83897,0.0352 -1.56141,-0.003 -2.14495,-0.1142 z m 3.27841,-4.38076 c 0.82015,-0.21159 1.95607,-0.78399 2.77674,-1.39921 0.78851,-0.59113 1.27903,-1.57601 1.45996,-2.93137 0.2877,-2.15518 -0.42541,-4.106 -1.50423,-4.11506 -0.74248,-0.006 -1.6798,-0.69483 -2.10788,-1.54855 -0.49905,-0.99523 -1.27491,-1.49819 -2.17735,-1.41147 -0.76615,0.0736 -1.29676,0.46797 -1.81976,1.35246 -0.24312,0.41115 -0.56402,0.86151 -0.71313,1.00081 -0.31175,0.29125 -1.01715,0.60927 -1.35141,0.60927 -0.4238,0 -0.83141,0.27301 -1.05138,0.70419 -0.54464,1.06758 -0.34252,2.86314 0.52271,4.64357 1.24985,2.57192 3.4898,3.73413 5.96573,3.09536 z"
       id="path6" />
  </g>
</svg>
